<svg xmlns="http://www.w3.org/2000/svg" xmlns:xlink="http://www.w3.org/1999/xlink" width="500" zoomAndPan="magnify" viewBox="0 0 375 374.999991" height="500" preserveAspectRatio="xMidYMid meet" version="1.0"><defs><clipPath id="eea6af3476"><path d="M 163 344 L 212.699219 344 L 212.699219 362.820312 L 163 362.820312 Z M 163 344 " clip-rule="nonzero"/></clipPath><clipPath id="0f4b79f9cb"><path d="M 55 11.820312 L 184 11.820312 L 184 225 L 55 225 Z M 55 11.820312 " clip-rule="nonzero"/></clipPath><clipPath id="833d7b9dbb"><path d="M 192 11.820312 L 319.808594 11.820312 L 319.808594 224.613281 L 192 224.613281 Z M 192 11.820312 " clip-rule="nonzero"/></clipPath></defs><path fill="#ee6b6f" d="M 224.753906 290.152344 C 224.753906 295.074219 220.75 299.078125 215.8125 299.078125 L 159.503906 299.078125 C 154.566406 299.078125 150.5625 295.074219 150.5625 290.152344 C 150.5625 285.21875 154.566406 281.21875 159.503906 281.21875 L 215.8125 281.21875 C 220.75 281.21875 224.753906 285.21875 224.753906 290.152344 " fill-opacity="1" fill-rule="nonzero"/><path fill="#ee6b6f" d="M 224.753906 311.898438 C 224.753906 316.835938 220.75 320.832031 215.8125 320.832031 L 159.503906 320.832031 C 154.566406 320.832031 150.5625 316.835938 150.5625 311.898438 C 150.5625 306.980469 154.566406 302.976562 159.503906 302.976562 L 215.8125 302.976562 C 220.75 302.976562 224.753906 306.980469 224.753906 311.898438 " fill-opacity="1" fill-rule="nonzero"/><path fill="#ee6b6f" d="M 219.675781 332.4375 C 219.675781 336.683594 216.226562 340.136719 211.960938 340.136719 L 163.355469 340.136719 C 159.089844 340.136719 155.632812 336.683594 155.632812 332.4375 C 155.632812 328.179688 159.089844 324.730469 163.355469 324.730469 L 211.960938 324.730469 C 216.226562 324.730469 219.675781 328.179688 219.675781 332.4375 " fill-opacity="1" fill-rule="nonzero"/><g clip-path="url(#eea6af3476)"><path fill="#5e6094" d="M 163.09375 344.039062 C 163.09375 354.441406 174.089844 362.882812 187.65625 362.882812 C 201.226562 362.882812 212.222656 354.441406 212.222656 344.039062 L 163.09375 344.039062 " fill-opacity="1" fill-rule="nonzero"/></g><g clip-path="url(#0f4b79f9cb)"><path fill="#fbbe48" d="M 115.59375 215.335938 C 100.8125 215.335938 88.613281 204.144531 87.050781 189.804688 C 90.355469 190.742188 93.839844 191.28125 97.449219 191.28125 C 101.148438 191.28125 104.722656 190.726562 108.105469 189.734375 C 110.175781 199.8125 116.265625 208.425781 124.617188 213.867188 C 121.773438 214.808594 118.746094 215.335938 115.59375 215.335938 Z M 68.730469 153.40625 C 68.730469 147.695312 70.429688 142.382812 73.332031 137.90625 C 79.167969 141.574219 86.050781 143.726562 93.445312 143.726562 C 96.503906 143.726562 99.464844 143.320312 102.316406 142.632812 C 101.292969 145.613281 100.617188 148.753906 100.367188 152.011719 C 90.332031 156.417969 82.550781 165.027344 79.304688 175.605469 C 72.859375 170.347656 68.730469 162.347656 68.730469 153.40625 Z M 111.261719 128.292969 C 106.355469 132.171875 100.171875 134.515625 93.445312 134.515625 C 88.4375 134.515625 83.734375 133.222656 79.632812 130.972656 C 84.535156 127.082031 90.71875 124.75 97.449219 124.75 C 102.445312 124.75 107.15625 126.035156 111.261719 128.292969 Z M 78.695312 81.308594 C 81.597656 93.550781 90.464844 103.492188 102.058594 107.933594 C 103.058594 111.011719 104.453125 113.910156 106.171875 116.589844 C 103.359375 115.925781 100.449219 115.539062 97.449219 115.539062 C 87.78125 115.539062 78.976562 119.191406 72.269531 125.152344 C 67.601562 120.046875 64.726562 113.296875 64.726562 105.859375 C 64.726562 95.4375 70.34375 86.328125 78.695312 81.308594 Z M 107.652344 45.0625 C 107.464844 46.582031 107.339844 48.117188 107.339844 49.6875 C 107.339844 56.554688 109.207031 62.988281 112.429688 68.554688 C 111.394531 69.511719 110.402344 70.511719 109.476562 71.578125 C 104.597656 69.292969 99.179688 67.984375 93.445312 67.984375 C 91.308594 67.984375 89.230469 68.203125 87.191406 68.546875 C 88.792969 57.292969 96.933594 48.152344 107.652344 45.0625 Z M 145.277344 21.023438 C 161.117188 21.023438 173.996094 33.886719 173.996094 49.6875 L 173.996094 83.976562 C 170.335938 73.398438 162.117188 64.960938 151.679688 60.964844 C 147.253906 47.292969 135.242188 37.035156 120.613281 35.085938 C 125.628906 26.683594 134.796875 21.023438 145.277344 21.023438 Z M 145.277344 210.800781 C 145.125 210.800781 144.984375 210.785156 144.832031 210.777344 C 149.667969 204.941406 152.757812 197.636719 153.378906 189.644531 C 163.011719 185.410156 170.53125 177.300781 173.996094 167.300781 L 173.996094 182.136719 C 173.996094 197.9375 161.117188 210.800781 145.277344 210.800781 Z M 115.59375 158.015625 C 119.050781 158.015625 122.347656 158.660156 125.417969 159.777344 C 124.121094 165.453125 121.144531 170.476562 117.03125 174.3125 C 113.109375 170.0625 110.46875 164.640625 109.703125 158.628906 C 111.605469 158.226562 113.574219 158.015625 115.59375 158.015625 Z M 118.621094 134.109375 C 122.625 138.484375 125.308594 144.078125 125.980469 150.28125 C 122.675781 149.339844 119.199219 148.804688 115.59375 148.804688 C 113.691406 148.804688 111.839844 148.988281 110.015625 149.257812 C 111.125 143.824219 113.785156 138.964844 117.492188 135.117188 C 117.878906 134.800781 118.242188 134.445312 118.621094 134.109375 Z M 153.613281 120.417969 C 148.886719 118.308594 143.664062 117.101562 138.152344 117.101562 C 135.089844 117.101562 132.128906 117.503906 129.277344 118.191406 C 130.5 114.664062 131.214844 110.914062 131.332031 107.007812 C 144.402344 101.023438 153.53125 87.863281 153.53125 72.585938 C 153.53125 72.433594 153.503906 72.28125 153.503906 72.121094 C 161.523438 77.210938 166.871094 86.136719 166.871094 96.304688 C 166.871094 106.429688 161.570312 115.320312 153.613281 120.417969 Z M 162.117188 125.640625 C 167.527344 121.230469 171.667969 115.355469 173.996094 108.628906 L 173.996094 142.648438 C 171.667969 135.925781 167.527344 130.046875 162.117188 125.640625 Z M 144.042969 183.027344 C 142.140625 183.421875 140.171875 183.640625 138.152344 183.640625 C 133.148438 183.640625 128.445312 182.347656 124.339844 180.089844 C 128.640625 175.773438 131.894531 170.441406 133.726562 164.480469 C 139.28125 169.015625 143.082031 175.578125 144.042969 183.027344 Z M 152.832031 179.558594 C 150.796875 168.921875 144.285156 159.878906 135.34375 154.394531 C 135.351562 154.070312 135.394531 153.742188 135.394531 153.40625 C 135.394531 145.941406 133.191406 138.996094 129.4375 133.128906 C 132.238281 133.792969 135.148438 134.179688 138.152344 134.179688 C 143.664062 134.179688 148.886719 132.976562 153.613281 130.863281 C 161.570312 135.957031 166.871094 144.851562 166.871094 154.976562 C 166.871094 165.421875 161.226562 174.554688 152.832031 179.558594 Z M 138.152344 67.648438 C 140.128906 67.648438 142.066406 67.847656 143.933594 68.226562 C 144.152344 69.652344 144.300781 71.097656 144.300781 72.585938 C 144.300781 74.53125 144.101562 76.4375 143.730469 78.277344 C 136.75 77.898438 130.429688 75.035156 125.652344 70.542969 C 129.4375 68.703125 133.667969 67.648438 138.152344 67.648438 Z M 116.566406 49.6875 C 116.566406 47.738281 116.769531 45.84375 117.140625 44.003906 C 127.210938 44.539062 135.914062 50.265625 140.601562 58.5625 C 139.785156 58.503906 138.976562 58.4375 138.152344 58.4375 C 131.550781 58.4375 125.339844 60.132812 119.925781 63.105469 C 117.789062 59.101562 116.566406 54.53125 116.566406 49.6875 Z M 117.988281 75.933594 C 123.792969 81.945312 131.558594 86.035156 140.246094 87.195312 C 137.816406 91.273438 134.410156 94.691406 130.328125 97.144531 C 128.378906 88.914062 123.769531 81.71875 117.417969 76.53125 C 117.609375 76.335938 117.789062 76.128906 117.988281 75.933594 Z M 100.242188 96.773438 C 93.636719 92.582031 88.859375 85.792969 87.378906 77.847656 C 89.339844 77.429688 91.367188 77.195312 93.445312 77.195312 C 97.277344 77.195312 100.9375 77.957031 104.285156 79.328125 C 101.703125 84.4375 100.214844 90.199219 100.214844 96.304688 C 100.214844 96.460938 100.230469 96.613281 100.242188 96.773438 Z M 109.441406 96.304688 C 109.441406 91.960938 110.445312 87.863281 112.175781 84.179688 C 117.003906 88.34375 120.4375 94.078125 121.648438 100.59375 C 119.695312 101.011719 117.671875 101.25 115.59375 101.25 C 113.605469 101.25 111.679688 101.054688 109.8125 100.667969 C 109.585938 99.242188 109.441406 97.789062 109.441406 96.304688 Z M 113.144531 110.339844 C 113.960938 110.390625 114.769531 110.460938 115.59375 110.460938 C 117.71875 110.460938 119.796875 110.242188 121.832031 109.90625 C 121.429688 112.75 120.605469 115.464844 119.429688 117.980469 C 116.921875 115.816406 114.785156 113.238281 113.144531 110.339844 Z M 100.90625 162.085938 C 102.160156 168.644531 105.109375 174.597656 109.292969 179.492188 C 105.675781 181.128906 101.671875 182.070312 97.449219 182.070312 C 93.980469 182.070312 90.683594 181.421875 87.613281 180.308594 C 89.378906 172.574219 94.277344 166.050781 100.90625 162.085938 Z M 116.914062 186.335938 C 122.976562 190.441406 130.289062 192.851562 138.152344 192.851562 C 140.054688 192.851562 141.898438 192.664062 143.722656 192.390625 C 142.417969 198.820312 138.945312 204.453125 134.105469 208.542969 C 125.054688 204.714844 118.394531 196.351562 116.914062 186.335938 Z M 145.277344 220.011719 C 166.199219 220.011719 183.226562 203.019531 183.226562 182.136719 L 183.226562 49.6875 C 183.226562 28.804688 166.199219 11.8125 145.277344 11.8125 C 129.523438 11.8125 115.988281 21.453125 110.257812 35.128906 C 92.230469 37.671875 78.257812 52.886719 77.695312 71.441406 C 64.625 77.421875 55.496094 90.585938 55.496094 105.859375 C 55.496094 116.027344 59.558594 125.261719 66.121094 132.070312 C 61.949219 138.148438 59.5 145.496094 59.5 153.40625 C 59.5 167.066406 66.800781 179.023438 77.695312 185.6875 C 77.679688 186.015625 77.644531 186.34375 77.644531 186.679688 C 77.644531 207.5625 94.664062 224.546875 115.59375 224.546875 C 122.976562 224.546875 129.851562 222.398438 135.6875 218.734375 C 138.757812 219.542969 141.964844 220.011719 145.277344 220.011719 " fill-opacity="1" fill-rule="nonzero"/></g><g clip-path="url(#833d7b9dbb)"><path fill="#fbbe48" d="M 296.011719 175.605469 C 292.765625 165.027344 284.984375 156.410156 274.949219 152.003906 C 274.695312 148.746094 274.023438 145.613281 272.988281 142.632812 C 275.839844 143.320312 278.808594 143.726562 281.871094 143.726562 C 289.265625 143.726562 296.148438 141.574219 301.992188 137.90625 C 304.886719 142.382812 306.585938 147.695312 306.585938 153.40625 C 306.585938 162.347656 302.457031 170.347656 296.011719 175.605469 Z M 259.730469 215.335938 C 256.578125 215.335938 253.539062 214.808594 250.699219 213.867188 C 259.050781 208.425781 265.148438 199.8125 267.210938 189.734375 C 270.601562 190.726562 274.167969 191.28125 277.867188 191.28125 C 281.476562 191.28125 284.960938 190.742188 288.265625 189.804688 C 286.699219 204.144531 274.503906 215.335938 259.730469 215.335938 Z M 201.320312 182.136719 L 201.320312 167.308594 C 204.785156 177.308594 212.304688 185.410156 221.9375 189.644531 C 222.558594 197.636719 225.644531 204.941406 230.484375 210.777344 C 230.332031 210.785156 230.1875 210.800781 230.039062 210.800781 C 214.207031 210.800781 201.320312 197.9375 201.320312 182.136719 Z M 230.039062 21.023438 C 240.527344 21.023438 249.6875 26.683594 254.703125 35.085938 C 240.074219 37.035156 228.0625 47.292969 223.628906 60.964844 C 213.195312 64.960938 204.988281 73.398438 201.320312 83.96875 L 201.320312 49.6875 C 201.320312 33.886719 214.207031 21.023438 230.039062 21.023438 Z M 288.121094 68.546875 C 286.085938 68.203125 284 67.984375 281.871094 67.984375 C 276.136719 67.984375 270.710938 69.292969 265.832031 71.578125 C 264.914062 70.519531 263.921875 69.511719 262.886719 68.554688 C 266.109375 62.988281 267.976562 56.554688 267.976562 49.6875 C 267.976562 48.117188 267.847656 46.582031 267.664062 45.0625 C 278.382812 48.144531 286.515625 57.292969 288.121094 68.546875 Z M 295.683594 130.972656 C 291.578125 133.222656 286.878906 134.515625 281.871094 134.515625 C 275.144531 134.515625 268.960938 132.171875 264.054688 128.292969 C 268.160156 126.042969 272.863281 124.75 277.867188 124.75 C 284.597656 124.75 290.78125 127.082031 295.683594 130.972656 Z M 310.589844 105.859375 C 310.589844 113.289062 307.714844 120.046875 303.046875 125.152344 C 296.339844 119.191406 287.535156 115.539062 277.867188 115.539062 C 274.863281 115.539062 271.953125 115.925781 269.144531 116.589844 C 270.859375 113.910156 272.257812 111.011719 273.25 107.933594 C 284.851562 103.5 293.707031 93.550781 296.617188 81.308594 C 304.972656 86.328125 310.589844 95.4375 310.589844 105.859375 Z M 259.730469 148.804688 C 256.125 148.804688 252.640625 149.339844 249.324219 150.28125 C 250.007812 144.078125 252.691406 138.484375 256.695312 134.109375 C 257.074219 134.445312 257.433594 134.800781 257.824219 135.117188 C 261.53125 138.964844 264.191406 143.824219 265.292969 149.257812 C 263.476562 148.988281 261.625 148.804688 259.730469 148.804688 Z M 258.285156 174.3125 C 254.171875 170.476562 251.183594 165.453125 249.890625 159.777344 C 252.96875 158.660156 256.273438 158.015625 259.730469 158.015625 C 261.75 158.015625 263.710938 158.226562 265.613281 158.621094 C 264.847656 164.632812 262.195312 170.0625 258.285156 174.3125 Z M 241.585938 164.480469 C 243.414062 170.441406 246.675781 175.773438 250.964844 180.089844 C 246.871094 182.347656 242.160156 183.640625 237.164062 183.640625 C 235.144531 183.640625 233.175781 183.421875 231.273438 183.027344 C 232.234375 175.578125 236.035156 169.015625 241.585938 164.480469 Z M 213.195312 125.640625 C 207.789062 130.046875 203.648438 135.925781 201.320312 142.632812 L 201.320312 108.644531 C 203.648438 115.355469 207.789062 121.230469 213.195312 125.640625 Z M 243.984375 107.007812 C 244.101562 110.914062 244.808594 114.664062 246.035156 118.191406 C 243.183594 117.503906 240.222656 117.101562 237.164062 117.101562 C 231.652344 117.101562 226.429688 118.308594 221.699219 120.417969 C 213.734375 115.320312 208.445312 106.429688 208.445312 96.304688 C 208.445312 86.136719 213.785156 77.210938 221.808594 72.121094 C 221.808594 72.28125 221.785156 72.433594 221.785156 72.585938 C 221.785156 87.863281 230.914062 101.023438 243.984375 107.007812 Z M 237.164062 67.648438 C 241.644531 67.648438 245.878906 68.714844 249.664062 70.550781 C 244.882812 75.035156 238.566406 77.898438 231.585938 78.277344 C 231.214844 76.4375 231.011719 74.53125 231.011719 72.585938 C 231.011719 71.097656 231.164062 69.652344 231.382812 68.226562 C 233.25 67.847656 235.175781 67.648438 237.164062 67.648438 Z M 255.886719 117.980469 C 254.703125 115.464844 253.886719 112.75 253.472656 109.90625 C 255.515625 110.242188 257.59375 110.460938 259.730469 110.460938 C 260.554688 110.460938 261.355469 110.390625 262.164062 110.339844 C 260.53125 113.238281 258.394531 115.816406 255.886719 117.980469 Z M 271.027344 79.328125 C 274.378906 77.957031 278.035156 77.195312 281.871094 77.195312 C 283.949219 77.195312 285.976562 77.429688 287.9375 77.847656 C 286.449219 85.800781 281.679688 92.582031 275.074219 96.773438 C 275.074219 96.613281 275.101562 96.460938 275.101562 96.304688 C 275.101562 90.199219 273.613281 84.4375 271.027344 79.328125 Z M 265.871094 96.304688 C 265.871094 97.789062 265.722656 99.242188 265.503906 100.667969 C 263.636719 101.054688 261.707031 101.25 259.730469 101.25 C 257.644531 101.25 255.617188 101.011719 253.660156 100.59375 C 254.878906 94.078125 258.300781 88.34375 263.136719 84.179688 C 264.871094 87.863281 265.871094 91.960938 265.871094 96.304688 Z M 257.890625 76.53125 C 251.546875 81.71875 246.9375 88.914062 244.984375 97.132812 C 240.90625 94.691406 237.5 91.273438 235.066406 87.195312 C 243.757812 86.035156 251.523438 81.945312 257.324219 75.933594 C 257.519531 76.128906 257.703125 76.335938 257.890625 76.53125 Z M 258.746094 49.6875 C 258.746094 54.53125 257.527344 59.101562 255.390625 63.113281 C 249.972656 60.132812 243.765625 58.4375 237.164062 58.4375 C 236.328125 58.4375 235.53125 58.503906 234.714844 58.5625 C 239.398438 50.265625 248.105469 44.550781 258.175781 44.003906 C 258.546875 45.84375 258.746094 47.738281 258.746094 49.6875 Z M 208.445312 154.976562 C 208.445312 144.851562 213.734375 135.957031 221.699219 130.863281 C 226.429688 132.976562 231.652344 134.179688 237.164062 134.179688 C 240.164062 134.179688 243.066406 133.792969 245.878906 133.128906 C 242.125 138.996094 239.921875 145.941406 239.921875 153.40625 C 239.921875 153.742188 239.964844 154.070312 239.972656 154.40625 C 231.03125 159.878906 224.511719 168.921875 222.476562 179.558594 C 214.089844 174.554688 208.445312 165.421875 208.445312 154.976562 Z M 241.207031 208.542969 C 236.371094 204.453125 232.898438 198.820312 231.59375 192.390625 C 233.410156 192.664062 235.261719 192.851562 237.164062 192.851562 C 245.027344 192.851562 252.335938 190.441406 258.402344 186.335938 C 256.921875 196.351562 250.269531 204.714844 241.207031 208.542969 Z M 287.703125 180.308594 C 284.632812 181.421875 281.324219 182.070312 277.867188 182.070312 C 273.644531 182.070312 269.640625 181.128906 266.023438 179.492188 C 270.203125 174.597656 273.148438 168.644531 274.402344 162.085938 C 281.03125 166.042969 285.933594 172.574219 287.703125 180.308594 Z M 319.820312 105.859375 C 319.820312 90.585938 310.691406 77.421875 297.609375 71.441406 C 297.054688 52.886719 283.082031 37.671875 265.054688 35.128906 C 259.328125 21.453125 245.792969 11.8125 230.039062 11.8125 C 209.117188 11.8125 192.089844 28.804688 192.089844 49.6875 L 192.089844 182.136719 C 192.089844 203.019531 209.117188 220.011719 230.039062 220.011719 C 233.359375 220.011719 236.558594 219.542969 239.628906 218.734375 C 245.464844 222.398438 252.347656 224.546875 259.730469 224.546875 C 280.652344 224.546875 297.667969 207.5625 297.667969 186.679688 C 297.667969 186.34375 297.628906 186.015625 297.621094 185.6875 C 308.511719 179.023438 315.816406 167.066406 315.816406 153.40625 C 315.816406 145.496094 313.367188 138.148438 309.195312 132.070312 C 315.753906 125.261719 319.820312 116.027344 319.820312 105.859375 " fill-opacity="1" fill-rule="nonzero"/></g><path fill="#fbbe48" d="M 159.605469 263.539062 C 159.234375 261.933594 158.9375 260.171875 158.15625 258.535156 C 156.929688 255.117188 154.933594 251.714844 152.511719 248.703125 C 150.074219 245.695312 147.203125 243.085938 144.269531 241.042969 C 141.324219 239.011719 138.371094 237.476562 135.730469 236.484375 C 130.464844 234.378906 126.628906 234.300781 126.628906 234.300781 C 126.628906 234.300781 129.722656 236.445312 133.90625 239.710938 C 135.992188 241.355469 138.328125 243.3125 140.703125 245.484375 C 143 247.71875 145.453125 250.078125 147.457031 252.757812 C 148.558594 254.035156 149.578125 255.359375 150.425781 256.769531 C 151.367188 258.121094 152.210938 259.507812 152.949219 260.902344 C 154.4375 263.664062 155.742188 266.394531 156.558594 268.859375 C 157.535156 271.304688 158.113281 273.460938 158.550781 275 C 159.023438 276.535156 159.351562 277.441406 159.351562 277.441406 C 159.351562 277.441406 159.570312 276.550781 159.839844 274.929688 C 160.125 273.3125 160.488281 270.960938 160.210938 268.113281 C 160.175781 266.679688 160.050781 265.125 159.605469 263.539062 " fill-opacity="1" fill-rule="nonzero"/><path fill="#fbbe48" d="M 231.046875 241.042969 C 228.109375 243.085938 225.242188 245.695312 222.792969 248.703125 C 220.378906 251.714844 218.386719 255.117188 217.160156 258.535156 C 216.375 260.171875 216.074219 261.933594 215.710938 263.539062 C 215.265625 265.125 215.132812 266.679688 215.105469 268.113281 C 214.820312 270.960938 215.183594 273.3125 215.476562 274.929688 C 215.746094 276.550781 215.964844 277.441406 215.964844 277.441406 C 215.964844 277.441406 216.292969 276.535156 216.761719 275 C 217.199219 273.460938 217.78125 271.304688 218.757812 268.859375 C 219.574219 266.394531 220.867188 263.664062 222.367188 260.902344 C 223.105469 259.507812 223.9375 258.121094 224.890625 256.769531 C 225.730469 255.359375 226.757812 254.035156 227.851562 252.757812 C 229.859375 250.078125 232.308594 247.71875 234.613281 245.484375 C 236.984375 243.3125 239.324219 241.355469 241.410156 239.710938 C 245.589844 236.445312 248.6875 234.300781 248.6875 234.300781 C 248.6875 234.300781 244.851562 234.378906 239.585938 236.484375 C 236.945312 237.476562 233.984375 239.011719 231.046875 241.042969 " fill-opacity="1" fill-rule="nonzero"/><path fill="#fbbe48" d="M 200.082031 240.347656 L 200.082031 233.597656 C 200.082031 232.230469 200.386719 231.171875 200.964844 230.550781 C 201.460938 230.019531 202.09375 229.902344 202.523438 229.902344 C 203.773438 229.902344 205.625 230.894531 205.625 233.597656 C 205.625 236.988281 203.355469 239.089844 200.082031 240.347656 Z M 175.226562 240.347656 C 171.953125 239.089844 169.679688 236.988281 169.679688 233.597656 C 169.679688 230.894531 171.539062 229.902344 172.785156 229.902344 C 173.222656 229.902344 173.84375 230.019531 174.339844 230.550781 C 174.921875 231.171875 175.226562 232.230469 175.226562 233.597656 Z M 202.523438 223.429688 C 200.082031 223.429688 197.84375 224.386719 196.222656 226.132812 C 195.019531 227.417969 193.589844 229.761719 193.589844 233.597656 L 193.589844 241.800781 C 189.660156 242.238281 185.65625 242.238281 181.71875 241.800781 L 181.71875 233.597656 C 181.71875 229.761719 180.296875 227.417969 179.09375 226.132812 C 177.460938 224.386719 175.226562 223.429688 172.785156 223.429688 C 168.074219 223.429688 163.1875 227.234375 163.1875 233.597656 C 163.1875 237.847656 165.019531 244.285156 175.226562 247.132812 L 175.226562 275.636719 L 181.71875 275.636719 L 181.71875 248.308594 C 185.320312 248.660156 189.988281 248.667969 193.589844 248.308594 L 193.589844 275.636719 L 200.082031 275.636719 L 200.082031 247.132812 C 210.285156 244.285156 212.121094 237.847656 212.121094 233.597656 C 212.121094 227.234375 207.242188 223.429688 202.523438 223.429688 " fill-opacity="1" fill-rule="nonzero"/></svg>