<svg xmlns="http://www.w3.org/2000/svg" xmlns:xlink="http://www.w3.org/1999/xlink" width="500" zoomAndPan="magnify" viewBox="0 0 375 374.999991" height="500" preserveAspectRatio="xMidYMid meet" version="1.0"><defs><clipPath id="fce28c46c0"><path d="M 158 341 L 214.90625 341 L 214.90625 362.09375 L 158 362.09375 Z M 158 341 " clip-rule="nonzero"/></clipPath><clipPath id="8786227d71"><path d="M 89.1875 22.480469 L 283.4375 22.480469 L 283.4375 253.480469 L 89.1875 253.480469 Z M 89.1875 22.480469 " clip-rule="nonzero"/></clipPath><clipPath id="a3182d4241"><path d="M 186.625 22.480469 L 283.375 22.480469 L 283.375 253.480469 L 186.625 253.480469 Z M 186.625 22.480469 " clip-rule="nonzero"/></clipPath><clipPath id="1efc5f6c2d"><path d="M 117.210938 217.980469 L 245.460938 217.980469 L 245.460938 265.980469 L 117.210938 265.980469 Z M 117.210938 217.980469 " clip-rule="nonzero"/></clipPath><clipPath id="3079f9c92c"><path d="M 186.800781 217.980469 L 257.300781 217.980469 L 257.300781 265.980469 L 186.800781 265.980469 Z M 186.800781 217.980469 " clip-rule="nonzero"/></clipPath></defs><path fill="#ee6b6f" d="M 228.628906 279.585938 C 228.628906 285.203125 224.070312 289.773438 218.449219 289.773438 L 154.347656 289.773438 C 148.726562 289.773438 144.167969 285.203125 144.167969 279.585938 C 144.167969 273.953125 148.726562 269.394531 154.347656 269.394531 L 218.449219 269.394531 C 224.070312 269.394531 228.628906 273.953125 228.628906 279.585938 " fill-opacity="1" fill-rule="nonzero"/><path fill="#ee6b6f" d="M 228.628906 304.402344 C 228.628906 310.035156 224.070312 314.59375 218.449219 314.59375 L 154.347656 314.59375 C 148.726562 314.59375 144.167969 310.035156 144.167969 304.402344 C 144.167969 298.785156 148.726562 294.214844 154.347656 294.214844 L 218.449219 294.214844 C 224.070312 294.214844 228.628906 298.785156 228.628906 304.402344 " fill-opacity="1" fill-rule="nonzero"/><path fill="#ee6b6f" d="M 222.84375 327.832031 C 222.84375 332.679688 218.917969 336.617188 214.0625 336.617188 L 158.734375 336.617188 C 153.878906 336.617188 149.941406 332.679688 149.941406 327.832031 C 149.941406 322.976562 153.878906 319.039062 158.734375 319.039062 L 214.0625 319.039062 C 218.917969 319.039062 222.84375 322.976562 222.84375 327.832031 " fill-opacity="1" fill-rule="nonzero"/><g clip-path="url(#fce28c46c0)"><path fill="#5e6094" d="M 158.4375 341.074219 C 158.4375 352.945312 170.953125 362.570312 186.398438 362.570312 C 201.84375 362.570312 214.359375 352.945312 214.359375 341.074219 L 158.4375 341.074219 " fill-opacity="1" fill-rule="nonzero"/></g><g clip-path="url(#8786227d71)"><path fill="#fbbe48" d="M 283.4375 137.980469 C 283.4375 139.871094 283.398438 141.757812 283.320312 143.644531 C 283.242188 145.53125 283.125 147.414062 282.96875 149.296875 C 282.8125 151.175781 282.617188 153.050781 282.386719 154.917969 C 282.152344 156.789062 281.878906 158.648438 281.570312 160.5 C 281.261719 162.355469 280.914062 164.195312 280.527344 166.027344 C 280.140625 167.863281 279.714844 169.683594 279.253906 171.488281 C 278.792969 173.296875 278.292969 175.089844 277.757812 176.871094 C 277.222656 178.648438 276.652344 180.410156 276.042969 182.15625 C 275.433594 183.902344 274.792969 185.628906 274.113281 187.335938 C 273.433594 189.042969 272.71875 190.730469 271.96875 192.398438 C 271.21875 194.0625 270.4375 195.707031 269.617188 197.328125 C 268.800781 198.949219 267.953125 200.542969 267.066406 202.113281 C 266.183594 203.683594 265.269531 205.230469 264.324219 206.746094 C 263.375 208.265625 262.398438 209.753906 261.390625 211.214844 C 260.382812 212.675781 259.34375 214.105469 258.277344 215.503906 C 257.210938 216.902344 256.113281 218.273438 254.988281 219.609375 C 253.867188 220.945312 252.714844 222.246094 251.535156 223.515625 C 250.359375 224.785156 249.15625 226.015625 247.925781 227.214844 C 246.699219 228.414062 245.445312 229.574219 244.167969 230.703125 C 242.890625 231.828125 241.59375 232.914062 240.269531 233.964844 C 238.949219 235.011719 237.605469 236.023438 236.242188 236.996094 C 234.878906 237.964844 233.496094 238.898438 232.097656 239.789062 C 230.695312 240.679688 229.273438 241.527344 227.839844 242.335938 C 226.402344 243.144531 224.949219 243.910156 223.480469 244.632812 C 222.011719 245.355469 220.527344 246.035156 219.03125 246.671875 C 217.535156 247.308594 216.027344 247.898438 214.503906 248.449219 C 212.984375 248.996094 211.453125 249.5 209.910156 249.960938 C 208.371094 250.417969 206.820312 250.832031 205.261719 251.199219 C 203.699219 251.570312 202.136719 251.890625 200.5625 252.167969 C 198.992188 252.445312 197.414062 252.679688 195.832031 252.863281 C 194.25 253.046875 192.664062 253.1875 191.078125 253.28125 C 189.488281 253.371094 187.902344 253.417969 186.3125 253.417969 C 184.722656 253.417969 183.132812 253.371094 181.546875 253.28125 C 179.957031 253.1875 178.375 253.046875 176.792969 252.863281 C 175.210938 252.679688 173.632812 252.445312 172.058594 252.167969 C 170.488281 251.890625 168.921875 251.570312 167.363281 251.199219 C 165.804688 250.832031 164.253906 250.417969 162.710938 249.960938 C 161.171875 249.5 159.640625 248.996094 158.117188 248.449219 C 156.597656 247.898438 155.085938 247.308594 153.589844 246.671875 C 152.09375 246.035156 150.613281 245.355469 149.144531 244.632812 C 147.675781 243.910156 146.222656 243.144531 144.785156 242.335938 C 143.347656 241.527344 141.929688 240.679688 140.527344 239.789062 C 139.125 238.898438 137.742188 237.964844 136.378906 236.996094 C 135.015625 236.023438 133.671875 235.011719 132.351562 233.964844 C 131.03125 232.914062 129.730469 231.828125 128.453125 230.703125 C 127.175781 229.574219 125.925781 228.414062 124.695312 227.214844 C 123.46875 226.015625 122.265625 224.785156 121.085938 223.515625 C 119.910156 222.246094 118.757812 220.945312 117.632812 219.609375 C 116.511719 218.273438 115.414062 216.902344 114.347656 215.503906 C 113.28125 214.105469 112.242188 212.675781 111.234375 211.214844 C 110.226562 209.753906 109.246094 208.265625 108.300781 206.746094 C 107.351562 205.230469 106.4375 203.683594 105.554688 202.113281 C 104.671875 200.542969 103.820312 198.949219 103.003906 197.328125 C 102.1875 195.707031 101.40625 194.0625 100.65625 192.398438 C 99.90625 190.730469 99.191406 189.042969 98.511719 187.335938 C 97.832031 185.628906 97.1875 183.902344 96.578125 182.15625 C 95.972656 180.410156 95.398438 178.648438 94.863281 176.871094 C 94.328125 175.089844 93.832031 173.296875 93.367188 171.488281 C 92.90625 169.683594 92.484375 167.863281 92.097656 166.027344 C 91.710938 164.195312 91.363281 162.355469 91.054688 160.5 C 90.742188 158.648438 90.472656 156.789062 90.238281 154.917969 C 90.003906 153.050781 89.808594 151.175781 89.65625 149.296875 C 89.5 147.414062 89.382812 145.53125 89.304688 143.644531 C 89.226562 141.757812 89.1875 139.871094 89.1875 137.980469 C 89.1875 136.089844 89.226562 134.203125 89.304688 132.316406 C 89.382812 130.429688 89.5 128.546875 89.65625 126.664062 C 89.808594 124.785156 90.003906 122.910156 90.238281 121.042969 C 90.472656 119.171875 90.742188 117.3125 91.054688 115.457031 C 91.363281 113.605469 91.710938 111.761719 92.097656 109.929688 C 92.484375 108.097656 92.90625 106.277344 93.367188 104.46875 C 93.832031 102.660156 94.328125 100.867188 94.863281 99.089844 C 95.398438 97.3125 95.972656 95.546875 96.578125 93.804688 C 97.1875 92.058594 97.832031 90.332031 98.511719 88.625 C 99.191406 86.914062 99.90625 85.230469 100.65625 83.5625 C 101.40625 81.894531 102.1875 80.253906 103.003906 78.632812 C 103.820312 77.011719 104.671875 75.417969 105.554688 73.84375 C 106.4375 72.273438 107.351562 70.730469 108.300781 69.214844 C 109.246094 67.695312 110.226562 66.207031 111.234375 64.746094 C 112.242188 63.285156 113.28125 61.855469 114.347656 60.457031 C 115.414062 59.054688 116.511719 57.6875 117.632812 56.351562 C 118.757812 55.015625 119.910156 53.714844 121.085938 52.445312 C 122.265625 51.175781 123.46875 49.941406 124.695312 48.746094 C 125.925781 47.546875 127.175781 46.382812 128.453125 45.257812 C 129.730469 44.132812 131.03125 43.046875 132.351562 41.996094 C 133.671875 40.945312 135.015625 39.9375 136.378906 38.964844 C 137.742188 37.992188 139.125 37.0625 140.527344 36.171875 C 141.929688 35.28125 143.347656 34.433594 144.785156 33.625 C 146.222656 32.816406 147.675781 32.050781 149.144531 31.328125 C 150.613281 30.605469 152.09375 29.925781 153.589844 29.289062 C 155.085938 28.652344 156.597656 28.058594 158.117188 27.511719 C 159.640625 26.964844 161.171875 26.460938 162.710938 26 C 164.253906 25.542969 165.804688 25.128906 167.363281 24.757812 C 168.921875 24.390625 170.488281 24.066406 172.058594 23.789062 C 173.632812 23.511719 175.210938 23.28125 176.792969 23.097656 C 178.375 22.910156 179.957031 22.773438 181.546875 22.679688 C 183.132812 22.585938 184.722656 22.542969 186.3125 22.542969 C 187.902344 22.542969 189.488281 22.585938 191.078125 22.679688 C 192.664062 22.773438 194.25 22.910156 195.832031 23.097656 C 197.414062 23.28125 198.992188 23.511719 200.5625 23.789062 C 202.136719 24.066406 203.699219 24.390625 205.261719 24.757812 C 206.820312 25.128906 208.371094 25.542969 209.910156 26 C 211.453125 26.460938 212.984375 26.964844 214.503906 27.511719 C 216.027344 28.058594 217.535156 28.652344 219.03125 29.289062 C 220.527344 29.925781 222.011719 30.605469 223.480469 31.328125 C 224.949219 32.050781 226.402344 32.816406 227.839844 33.625 C 229.273438 34.433594 230.695312 35.28125 232.097656 36.171875 C 233.496094 37.0625 234.878906 37.992188 236.242188 38.964844 C 237.605469 39.9375 238.949219 40.945312 240.269531 41.996094 C 241.59375 43.046875 242.890625 44.132812 244.167969 45.257812 C 245.445312 46.382812 246.699219 47.546875 247.925781 48.746094 C 249.15625 49.941406 250.359375 51.175781 251.535156 52.445312 C 252.714844 53.714844 253.867188 55.015625 254.988281 56.351562 C 256.113281 57.6875 257.210938 59.054688 258.277344 60.457031 C 259.34375 61.855469 260.382812 63.285156 261.390625 64.746094 C 262.398438 66.207031 263.375 67.695312 264.324219 69.214844 C 265.269531 70.730469 266.183594 72.273438 267.066406 73.84375 C 267.953125 75.417969 268.800781 77.011719 269.617188 78.632812 C 270.4375 80.253906 271.21875 81.894531 271.96875 83.5625 C 272.71875 85.230469 273.433594 86.914062 274.113281 88.625 C 274.792969 90.332031 275.433594 92.058594 276.042969 93.804688 C 276.652344 95.546875 277.222656 97.3125 277.757812 99.089844 C 278.292969 100.867188 278.792969 102.660156 279.253906 104.46875 C 279.714844 106.277344 280.140625 108.097656 280.527344 109.929688 C 280.914062 111.761719 281.261719 113.605469 281.570312 115.457031 C 281.878906 117.3125 282.152344 119.171875 282.386719 121.042969 C 282.617188 122.910156 282.8125 124.785156 282.96875 126.664062 C 283.125 128.546875 283.242188 130.429688 283.320312 132.316406 C 283.398438 134.203125 283.4375 136.089844 283.4375 137.980469 Z M 283.4375 137.980469 " fill-opacity="1" fill-rule="nonzero"/></g><g clip-path="url(#a3182d4241)"><path fill="#ffde59" d="M 283.4375 137.980469 C 283.4375 139.871094 283.398438 141.757812 283.320312 143.644531 C 283.242188 145.53125 283.125 147.414062 282.96875 149.296875 C 282.8125 151.175781 282.617188 153.050781 282.386719 154.917969 C 282.152344 156.789062 281.878906 158.648438 281.570312 160.5 C 281.261719 162.355469 280.914062 164.195312 280.527344 166.027344 C 280.140625 167.863281 279.714844 169.683594 279.253906 171.488281 C 278.792969 173.296875 278.292969 175.089844 277.757812 176.871094 C 277.222656 178.648438 276.652344 180.410156 276.042969 182.15625 C 275.433594 183.902344 274.792969 185.628906 274.113281 187.335938 C 273.433594 189.042969 272.71875 190.730469 271.96875 192.398438 C 271.21875 194.0625 270.4375 195.707031 269.617188 197.328125 C 268.800781 198.949219 267.953125 200.542969 267.066406 202.113281 C 266.183594 203.683594 265.269531 205.230469 264.324219 206.746094 C 263.375 208.265625 262.398438 209.753906 261.390625 211.214844 C 260.382812 212.675781 259.34375 214.105469 258.277344 215.503906 C 257.210938 216.902344 256.113281 218.273438 254.988281 219.609375 C 253.867188 220.945312 252.714844 222.246094 251.535156 223.515625 C 250.359375 224.785156 249.15625 226.015625 247.925781 227.214844 C 246.699219 228.414062 245.445312 229.574219 244.167969 230.703125 C 242.890625 231.828125 241.59375 232.914062 240.269531 233.964844 C 238.949219 235.011719 237.605469 236.023438 236.242188 236.996094 C 234.878906 237.964844 233.496094 238.898438 232.097656 239.789062 C 230.695312 240.679688 229.273438 241.527344 227.839844 242.335938 C 226.402344 243.144531 224.949219 243.910156 223.480469 244.632812 C 222.011719 245.355469 220.527344 246.035156 219.03125 246.671875 C 217.535156 247.308594 216.027344 247.898438 214.503906 248.449219 C 212.984375 248.996094 211.453125 249.5 209.910156 249.960938 C 208.371094 250.417969 206.820312 250.832031 205.261719 251.199219 C 203.699219 251.570312 202.136719 251.890625 200.5625 252.167969 C 198.992188 252.445312 197.414062 252.679688 195.832031 252.863281 C 194.25 253.046875 192.664062 253.1875 191.078125 253.28125 C 189.488281 253.371094 187.902344 253.417969 186.3125 253.417969 C 184.722656 253.417969 183.132812 253.371094 181.546875 253.28125 C 179.957031 253.1875 178.375 253.046875 176.792969 252.863281 C 175.210938 252.679688 173.632812 252.445312 172.058594 252.167969 C 170.488281 251.890625 168.921875 251.570312 167.363281 251.199219 C 165.804688 250.832031 164.253906 250.417969 162.710938 249.960938 C 161.171875 249.5 159.640625 248.996094 158.117188 248.449219 C 156.597656 247.898438 155.085938 247.308594 153.589844 246.671875 C 152.09375 246.035156 150.613281 245.355469 149.144531 244.632812 C 147.675781 243.910156 146.222656 243.144531 144.785156 242.335938 C 143.347656 241.527344 141.929688 240.679688 140.527344 239.789062 C 139.125 238.898438 137.742188 237.964844 136.378906 236.996094 C 135.015625 236.023438 133.671875 235.011719 132.351562 233.964844 C 131.03125 232.914062 129.730469 231.828125 128.453125 230.703125 C 127.175781 229.574219 125.925781 228.414062 124.695312 227.214844 C 123.46875 226.015625 122.265625 224.785156 121.085938 223.515625 C 119.910156 222.246094 118.757812 220.945312 117.632812 219.609375 C 116.511719 218.273438 115.414062 216.902344 114.347656 215.503906 C 113.28125 214.105469 112.242188 212.675781 111.234375 211.214844 C 110.226562 209.753906 109.246094 208.265625 108.300781 206.746094 C 107.351562 205.230469 106.4375 203.683594 105.554688 202.113281 C 104.671875 200.542969 103.820312 198.949219 103.003906 197.328125 C 102.1875 195.707031 101.40625 194.0625 100.65625 192.398438 C 99.90625 190.730469 99.191406 189.042969 98.511719 187.335938 C 97.832031 185.628906 97.1875 183.902344 96.578125 182.15625 C 95.972656 180.410156 95.398438 178.648438 94.863281 176.871094 C 94.328125 175.089844 93.832031 173.296875 93.367188 171.488281 C 92.90625 169.683594 92.484375 167.863281 92.097656 166.027344 C 91.710938 164.195312 91.363281 162.355469 91.054688 160.5 C 90.742188 158.648438 90.472656 156.789062 90.238281 154.917969 C 90.003906 153.050781 89.808594 151.175781 89.65625 149.296875 C 89.5 147.414062 89.382812 145.53125 89.304688 143.644531 C 89.226562 141.757812 89.1875 139.871094 89.1875 137.980469 C 89.1875 136.089844 89.226562 134.203125 89.304688 132.316406 C 89.382812 130.429688 89.5 128.546875 89.65625 126.664062 C 89.808594 124.785156 90.003906 122.910156 90.238281 121.042969 C 90.472656 119.171875 90.742188 117.3125 91.054688 115.457031 C 91.363281 113.605469 91.710938 111.761719 92.097656 109.929688 C 92.484375 108.097656 92.90625 106.277344 93.367188 104.46875 C 93.832031 102.660156 94.328125 100.867188 94.863281 99.089844 C 95.398438 97.3125 95.972656 95.546875 96.578125 93.804688 C 97.1875 92.058594 97.832031 90.332031 98.511719 88.625 C 99.191406 86.914062 99.90625 85.230469 100.65625 83.5625 C 101.40625 81.894531 102.1875 80.253906 103.003906 78.632812 C 103.820312 77.011719 104.671875 75.417969 105.554688 73.84375 C 106.4375 72.273438 107.351562 70.730469 108.300781 69.214844 C 109.246094 67.695312 110.226562 66.207031 111.234375 64.746094 C 112.242188 63.285156 113.28125 61.855469 114.347656 60.457031 C 115.414062 59.054688 116.511719 57.6875 117.632812 56.351562 C 118.757812 55.015625 119.910156 53.714844 121.085938 52.445312 C 122.265625 51.175781 123.46875 49.941406 124.695312 48.746094 C 125.925781 47.546875 127.175781 46.382812 128.453125 45.257812 C 129.730469 44.132812 131.03125 43.046875 132.351562 41.996094 C 133.671875 40.945312 135.015625 39.9375 136.378906 38.964844 C 137.742188 37.992188 139.125 37.0625 140.527344 36.171875 C 141.929688 35.28125 143.347656 34.433594 144.785156 33.625 C 146.222656 32.816406 147.675781 32.050781 149.144531 31.328125 C 150.613281 30.605469 152.09375 29.925781 153.589844 29.289062 C 155.085938 28.652344 156.597656 28.058594 158.117188 27.511719 C 159.640625 26.964844 161.171875 26.460938 162.710938 26 C 164.253906 25.542969 165.804688 25.128906 167.363281 24.757812 C 168.921875 24.390625 170.488281 24.066406 172.058594 23.789062 C 173.632812 23.511719 175.210938 23.28125 176.792969 23.097656 C 178.375 22.910156 179.957031 22.773438 181.546875 22.679688 C 183.132812 22.585938 184.722656 22.542969 186.3125 22.542969 C 187.902344 22.542969 189.488281 22.585938 191.078125 22.679688 C 192.664062 22.773438 194.25 22.910156 195.832031 23.097656 C 197.414062 23.28125 198.992188 23.511719 200.5625 23.789062 C 202.136719 24.066406 203.699219 24.390625 205.261719 24.757812 C 206.820312 25.128906 208.371094 25.542969 209.910156 26 C 211.453125 26.460938 212.984375 26.964844 214.503906 27.511719 C 216.027344 28.058594 217.535156 28.652344 219.03125 29.289062 C 220.527344 29.925781 222.011719 30.605469 223.480469 31.328125 C 224.949219 32.050781 226.402344 32.816406 227.839844 33.625 C 229.273438 34.433594 230.695312 35.28125 232.097656 36.171875 C 233.496094 37.0625 234.878906 37.992188 236.242188 38.964844 C 237.605469 39.9375 238.949219 40.945312 240.269531 41.996094 C 241.59375 43.046875 242.890625 44.132812 244.167969 45.257812 C 245.445312 46.382812 246.699219 47.546875 247.925781 48.746094 C 249.15625 49.941406 250.359375 51.175781 251.535156 52.445312 C 252.714844 53.714844 253.867188 55.015625 254.988281 56.351562 C 256.113281 57.6875 257.210938 59.054688 258.277344 60.457031 C 259.34375 61.855469 260.382812 63.285156 261.390625 64.746094 C 262.398438 66.207031 263.375 67.695312 264.324219 69.214844 C 265.269531 70.730469 266.183594 72.273438 267.066406 73.84375 C 267.953125 75.417969 268.800781 77.011719 269.617188 78.632812 C 270.4375 80.253906 271.21875 81.894531 271.96875 83.5625 C 272.71875 85.230469 273.433594 86.914062 274.113281 88.625 C 274.792969 90.332031 275.433594 92.058594 276.042969 93.804688 C 276.652344 95.546875 277.222656 97.3125 277.757812 99.089844 C 278.292969 100.867188 278.792969 102.660156 279.253906 104.46875 C 279.714844 106.277344 280.140625 108.097656 280.527344 109.929688 C 280.914062 111.761719 281.261719 113.605469 281.570312 115.457031 C 281.878906 117.3125 282.152344 119.171875 282.386719 121.042969 C 282.617188 122.910156 282.8125 124.785156 282.96875 126.664062 C 283.125 128.546875 283.242188 130.429688 283.320312 132.316406 C 283.398438 134.203125 283.4375 136.089844 283.4375 137.980469 Z M 283.4375 137.980469 " fill-opacity="1" fill-rule="nonzero"/></g><g clip-path="url(#1efc5f6c2d)"><path fill="#fbbe48" d="M 213.46875 265.980469 L 229.402344 241.984375 L 245.335938 217.984375 C 202.667969 218.007812 160 218.03125 117.332031 218.058594 C 127.882812 234.015625 138.433594 249.972656 148.988281 265.925781 C 170.480469 265.945312 191.976562 265.964844 213.46875 265.980469 " fill-opacity="1" fill-rule="nonzero"/></g><g clip-path="url(#3079f9c92c)"><path fill="#ffde59" d="M 225.308594 265.980469 L 241.242188 241.984375 L 257.175781 217.984375 C 214.507812 218.007812 171.839844 218.03125 129.171875 218.058594 C 139.722656 234.015625 150.273438 249.972656 160.828125 265.925781 C 182.320312 265.945312 203.816406 265.964844 225.308594 265.980469 " fill-opacity="1" fill-rule="nonzero"/></g></svg>