<svg xmlns="http://www.w3.org/2000/svg" xmlns:xlink="http://www.w3.org/1999/xlink" width="500" zoomAndPan="magnify" viewBox="0 0 375 374.999991" height="500" preserveAspectRatio="xMidYMid meet" version="1.0"><defs><g/><clipPath id="6d3cd7cd1b"><path d="M 50 258.195312 L 81 258.195312 L 81 270.214844 L 50 270.214844 Z M 50 258.195312 " clip-rule="nonzero"/></clipPath><clipPath id="0166dc328d"><path d="M 13.832031 88 L 118.066406 88 L 118.066406 211.933594 L 13.832031 211.933594 Z M 13.832031 88 " clip-rule="nonzero"/></clipPath><clipPath id="43ee6140b8"><path d="M 66.117188 88 L 118.03125 88 L 118.03125 211.933594 L 66.117188 211.933594 Z M 66.117188 88 " clip-rule="nonzero"/></clipPath><clipPath id="81c59cc0fd"><path d="M 28.871094 192.886719 L 97.6875 192.886719 L 97.6875 218.644531 L 28.871094 218.644531 Z M 28.871094 192.886719 " clip-rule="nonzero"/></clipPath><clipPath id="a4af93d29c"><path d="M 66.210938 192.886719 L 104 192.886719 L 104 218.644531 L 66.210938 218.644531 Z M 66.210938 192.886719 " clip-rule="nonzero"/></clipPath></defs><path fill="#ee6b6f" d="M 88.65625 225.945312 C 88.65625 228.957031 86.210938 231.410156 83.195312 231.410156 L 48.796875 231.410156 C 45.78125 231.410156 43.335938 228.957031 43.335938 225.945312 C 43.335938 222.921875 45.78125 220.472656 48.796875 220.472656 L 83.195312 220.472656 C 86.210938 220.472656 88.65625 222.921875 88.65625 225.945312 " fill-opacity="1" fill-rule="nonzero"/><path fill="#ee6b6f" d="M 88.65625 239.257812 C 88.65625 242.28125 86.210938 244.726562 83.195312 244.726562 L 48.796875 244.726562 C 45.78125 244.726562 43.335938 242.28125 43.335938 239.257812 C 43.335938 236.246094 45.78125 233.792969 48.796875 233.792969 L 83.195312 233.792969 C 86.210938 233.792969 88.65625 236.246094 88.65625 239.257812 " fill-opacity="1" fill-rule="nonzero"/><path fill="#ee6b6f" d="M 85.554688 251.832031 C 85.554688 254.433594 83.445312 256.546875 80.839844 256.546875 L 51.152344 256.546875 C 48.546875 256.546875 46.433594 254.433594 46.433594 251.832031 C 46.433594 249.226562 48.546875 247.113281 51.152344 247.113281 L 80.839844 247.113281 C 83.445312 247.113281 85.554688 249.226562 85.554688 251.832031 " fill-opacity="1" fill-rule="nonzero"/><g clip-path="url(#6d3cd7cd1b)"><path fill="#5e6094" d="M 50.992188 258.9375 C 50.992188 265.304688 57.707031 270.472656 65.996094 270.472656 C 74.285156 270.472656 81 265.304688 81 258.9375 L 50.992188 258.9375 " fill-opacity="1" fill-rule="nonzero"/></g><g clip-path="url(#0166dc328d)"><path fill="#fbbe48" d="M 118.066406 149.957031 C 118.066406 151.988281 117.980469 154.011719 117.816406 156.03125 C 117.648438 158.050781 117.398438 160.054688 117.066406 162.042969 C 116.730469 164.03125 116.316406 166 115.820312 167.941406 C 115.328125 169.882812 114.753906 171.789062 114.097656 173.664062 C 113.445312 175.539062 112.714844 177.371094 111.914062 179.160156 C 111.109375 180.949219 110.230469 182.6875 109.28125 184.371094 C 108.335938 186.058594 107.320312 187.6875 106.234375 189.253906 C 105.152344 190.824219 104.007812 192.324219 102.800781 193.757812 C 101.59375 195.195312 100.332031 196.554688 99.011719 197.839844 C 97.691406 199.128906 96.324219 200.335938 94.902344 201.460938 C 93.484375 202.589844 92.023438 203.632812 90.515625 204.585938 C 89.011719 205.542969 87.46875 206.410156 85.894531 207.1875 C 84.316406 207.964844 82.710938 208.644531 81.078125 209.234375 C 79.445312 209.824219 77.792969 210.316406 76.117188 210.710938 C 74.441406 211.109375 72.757812 211.40625 71.058594 211.605469 C 69.359375 211.800781 67.65625 211.902344 65.949219 211.902344 C 64.242188 211.902344 62.539062 211.800781 60.839844 211.605469 C 59.140625 211.40625 57.457031 211.109375 55.78125 210.710938 C 54.109375 210.316406 52.453125 209.824219 50.820312 209.234375 C 49.1875 208.644531 47.582031 207.964844 46.003906 207.1875 C 44.429688 206.410156 42.886719 205.542969 41.382812 204.585938 C 39.875 203.632812 38.414062 202.589844 36.996094 201.460938 C 35.574219 200.335938 34.207031 199.128906 32.886719 197.839844 C 31.566406 196.554688 30.304688 195.195312 29.097656 193.757812 C 27.890625 192.324219 26.746094 190.824219 25.664062 189.253906 C 24.582031 187.6875 23.566406 186.058594 22.617188 184.371094 C 21.667969 182.6875 20.792969 180.949219 19.988281 179.160156 C 19.183594 177.371094 18.453125 175.539062 17.800781 173.664062 C 17.148438 171.789062 16.574219 169.882812 16.078125 167.941406 C 15.582031 166 15.167969 164.03125 14.835938 162.042969 C 14.5 160.054688 14.25 158.050781 14.085938 156.03125 C 13.917969 154.011719 13.832031 151.988281 13.832031 149.957031 C 13.832031 147.929688 13.917969 145.90625 14.085938 143.886719 C 14.25 141.867188 14.5 139.863281 14.835938 137.875 C 15.167969 135.882812 15.582031 133.917969 16.078125 131.976562 C 16.574219 130.035156 17.148438 128.128906 17.800781 126.253906 C 18.453125 124.378906 19.183594 122.546875 19.988281 120.757812 C 20.792969 118.96875 21.667969 117.230469 22.617188 115.542969 C 23.566406 113.859375 24.582031 112.230469 25.664062 110.660156 C 26.746094 109.09375 27.890625 107.59375 29.097656 106.15625 C 30.304688 104.722656 31.566406 103.363281 32.886719 102.074219 C 34.207031 100.789062 35.574219 99.582031 36.996094 98.453125 C 38.414062 97.328125 39.875 96.285156 41.382812 95.328125 C 42.886719 94.371094 44.429688 93.507812 46.003906 92.730469 C 47.582031 91.953125 49.1875 91.269531 50.820312 90.683594 C 52.453125 90.09375 54.109375 89.601562 55.78125 89.207031 C 57.457031 88.808594 59.140625 88.511719 60.839844 88.3125 C 62.539062 88.113281 64.242188 88.015625 65.949219 88.015625 C 67.65625 88.015625 69.359375 88.113281 71.058594 88.3125 C 72.757812 88.511719 74.441406 88.808594 76.117188 89.207031 C 77.792969 89.601562 79.445312 90.09375 81.078125 90.683594 C 82.710938 91.269531 84.316406 91.953125 85.894531 92.730469 C 87.46875 93.507812 89.011719 94.371094 90.515625 95.328125 C 92.023438 96.285156 93.484375 97.328125 94.902344 98.453125 C 96.324219 99.582031 97.691406 100.789062 99.011719 102.074219 C 100.332031 103.363281 101.59375 104.722656 102.800781 106.15625 C 104.007812 107.59375 105.152344 109.09375 106.234375 110.660156 C 107.320312 112.230469 108.335938 113.859375 109.28125 115.542969 C 110.230469 117.230469 111.109375 118.96875 111.914062 120.757812 C 112.714844 122.546875 113.445312 124.378906 114.097656 126.253906 C 114.753906 128.128906 115.328125 130.035156 115.820312 131.976562 C 116.316406 133.917969 116.730469 135.882812 117.066406 137.875 C 117.398438 139.863281 117.648438 141.867188 117.816406 143.886719 C 117.980469 145.90625 118.066406 147.929688 118.066406 149.957031 Z M 118.066406 149.957031 " fill-opacity="1" fill-rule="nonzero"/></g><g clip-path="url(#43ee6140b8)"><path fill="#ffde59" d="M 118.066406 149.957031 C 118.066406 151.988281 117.980469 154.011719 117.816406 156.03125 C 117.648438 158.050781 117.398438 160.054688 117.066406 162.042969 C 116.730469 164.03125 116.316406 166 115.820312 167.941406 C 115.328125 169.882812 114.753906 171.789062 114.097656 173.664062 C 113.445312 175.539062 112.714844 177.371094 111.914062 179.160156 C 111.109375 180.949219 110.230469 182.6875 109.28125 184.371094 C 108.335938 186.058594 107.320312 187.6875 106.234375 189.253906 C 105.152344 190.824219 104.007812 192.324219 102.800781 193.757812 C 101.59375 195.195312 100.332031 196.554688 99.011719 197.839844 C 97.691406 199.128906 96.324219 200.335938 94.902344 201.460938 C 93.484375 202.589844 92.023438 203.632812 90.515625 204.585938 C 89.011719 205.542969 87.46875 206.410156 85.894531 207.1875 C 84.316406 207.964844 82.710938 208.644531 81.078125 209.234375 C 79.445312 209.824219 77.789062 210.316406 76.117188 210.710938 C 74.441406 211.109375 72.757812 211.40625 71.058594 211.605469 C 69.359375 211.800781 67.65625 211.902344 65.949219 211.902344 C 64.242188 211.902344 62.539062 211.800781 60.839844 211.605469 C 59.140625 211.40625 57.457031 211.109375 55.78125 210.710938 C 54.109375 210.316406 52.453125 209.824219 50.820312 209.234375 C 49.1875 208.644531 47.582031 207.964844 46.003906 207.1875 C 44.429688 206.410156 42.886719 205.542969 41.382812 204.585938 C 39.875 203.632812 38.414062 202.589844 36.996094 201.460938 C 35.574219 200.335938 34.207031 199.128906 32.886719 197.839844 C 31.566406 196.554688 30.304688 195.195312 29.097656 193.757812 C 27.890625 192.324219 26.746094 190.824219 25.664062 189.253906 C 24.582031 187.6875 23.566406 186.058594 22.617188 184.371094 C 21.667969 182.6875 20.792969 180.949219 19.988281 179.160156 C 19.183594 177.371094 18.453125 175.539062 17.800781 173.664062 C 17.148438 171.789062 16.574219 169.882812 16.078125 167.941406 C 15.582031 166 15.167969 164.03125 14.835938 162.042969 C 14.5 160.054688 14.25 158.050781 14.085938 156.03125 C 13.917969 154.011719 13.832031 151.988281 13.832031 149.957031 C 13.832031 147.929688 13.917969 145.90625 14.085938 143.886719 C 14.25 141.867188 14.5 139.863281 14.835938 137.875 C 15.167969 135.882812 15.582031 133.917969 16.078125 131.976562 C 16.574219 130.035156 17.148438 128.128906 17.800781 126.253906 C 18.453125 124.378906 19.183594 122.546875 19.988281 120.757812 C 20.792969 118.96875 21.667969 117.230469 22.617188 115.542969 C 23.566406 113.859375 24.582031 112.230469 25.664062 110.660156 C 26.746094 109.09375 27.890625 107.59375 29.097656 106.15625 C 30.304688 104.722656 31.566406 103.363281 32.886719 102.074219 C 34.207031 100.789062 35.574219 99.582031 36.996094 98.453125 C 38.414062 97.328125 39.875 96.285156 41.382812 95.328125 C 42.886719 94.371094 44.429688 93.507812 46.003906 92.730469 C 47.582031 91.953125 49.1875 91.269531 50.820312 90.683594 C 52.453125 90.09375 54.109375 89.601562 55.78125 89.207031 C 57.457031 88.808594 59.140625 88.511719 60.839844 88.3125 C 62.539062 88.113281 64.242188 88.015625 65.949219 88.015625 C 67.65625 88.015625 69.359375 88.113281 71.058594 88.3125 C 72.757812 88.511719 74.441406 88.808594 76.117188 89.207031 C 77.792969 89.601562 79.445312 90.09375 81.078125 90.683594 C 82.710938 91.269531 84.316406 91.953125 85.894531 92.730469 C 87.46875 93.507812 89.011719 94.371094 90.515625 95.328125 C 92.023438 96.285156 93.484375 97.328125 94.902344 98.453125 C 96.324219 99.582031 97.691406 100.789062 99.011719 102.074219 C 100.332031 103.363281 101.59375 104.722656 102.800781 106.15625 C 104.007812 107.59375 105.152344 109.09375 106.234375 110.660156 C 107.320312 112.230469 108.335938 113.859375 109.28125 115.542969 C 110.230469 117.230469 111.109375 118.96875 111.914062 120.757812 C 112.714844 122.546875 113.445312 124.378906 114.097656 126.253906 C 114.753906 128.128906 115.328125 130.035156 115.820312 131.976562 C 116.316406 133.917969 116.730469 135.882812 117.066406 137.875 C 117.398438 139.863281 117.648438 141.867188 117.816406 143.886719 C 117.980469 145.90625 118.066406 147.929688 118.066406 149.957031 Z M 118.066406 149.957031 " fill-opacity="1" fill-rule="nonzero"/></g><g clip-path="url(#81c59cc0fd)"><path fill="#fbbe48" d="M 80.523438 218.644531 L 89.070312 205.765625 L 97.621094 192.886719 C 74.726562 192.902344 51.832031 192.914062 28.9375 192.925781 C 34.597656 201.488281 40.257812 210.050781 45.921875 218.613281 C 57.453125 218.625 68.988281 218.632812 80.523438 218.644531 " fill-opacity="1" fill-rule="nonzero"/></g><g clip-path="url(#a4af93d29c)"><path fill="#ffde59" d="M 86.875 218.644531 L 103.976562 192.886719 C 81.078125 192.902344 58.183594 192.914062 35.289062 192.925781 C 40.949219 201.488281 46.613281 210.050781 52.273438 218.613281 C 63.808594 218.625 75.339844 218.632812 86.875 218.644531 " fill-opacity="1" fill-rule="nonzero"/></g><g fill="#5e6094" fill-opacity="1"><g transform="translate(100.564493, 256.053821)"><g><path d="M 19.1875 -28.59375 L 19.1875 0 L 10.9375 0 L 10.9375 -28.59375 L 1.140625 -28.59375 L 1.140625 -34.90625 L 29.390625 -34.90625 L 28.53125 -28.59375 Z M 19.1875 -28.59375 "/></g></g></g><g fill="#5e6094" fill-opacity="1"><g transform="translate(135.019232, 256.053821)"><g><path d="M 11.484375 -38.15625 L 11.484375 -24.109375 C 12.609375 -25.296875 13.828125 -26.175781 15.140625 -26.75 C 16.460938 -27.332031 17.863281 -27.625 19.34375 -27.625 C 21.726562 -27.625 23.550781 -26.925781 24.8125 -25.53125 C 26.070312 -24.144531 26.703125 -22.179688 26.703125 -19.640625 L 26.703125 0 L 18.734375 0 L 18.734375 -17.4375 C 18.734375 -19.039062 18.550781 -20.160156 18.1875 -20.796875 C 17.832031 -21.441406 17.160156 -21.765625 16.171875 -21.765625 C 15.617188 -21.765625 15.078125 -21.632812 14.546875 -21.375 C 14.015625 -21.113281 13.492188 -20.738281 12.984375 -20.25 C 12.484375 -19.757812 11.984375 -19.179688 11.484375 -18.515625 L 11.484375 0 L 3.53125 0 L 3.53125 -37.375 Z M 11.484375 -38.15625 "/></g></g></g><g fill="#5e6094" fill-opacity="1"><g transform="translate(169.473971, 256.053821)"><g><path d="M 19.875 -26.75 L 19.875 -5.4375 L 26.671875 -5.4375 L 26.671875 0 L 4.328125 0 L 4.328125 -5.4375 L 11.90625 -5.4375 L 11.90625 -21.3125 L 4.578125 -21.3125 L 4.578125 -26.75 Z M 15.0625 -40.75 C 16.4375 -40.75 17.5625 -40.320312 18.4375 -39.46875 C 19.3125 -38.613281 19.75 -37.546875 19.75 -36.265625 C 19.75 -34.992188 19.3125 -33.925781 18.4375 -33.0625 C 17.5625 -32.195312 16.4375 -31.765625 15.0625 -31.765625 C 13.664062 -31.765625 12.523438 -32.195312 11.640625 -33.0625 C 10.765625 -33.925781 10.328125 -34.992188 10.328125 -36.265625 C 10.328125 -37.546875 10.765625 -38.613281 11.640625 -39.46875 C 12.523438 -40.320312 13.664062 -40.75 15.0625 -40.75 Z M 15.0625 -40.75 "/></g></g></g><g fill="#5e6094" fill-opacity="1"><g transform="translate(203.92871, 256.053821)"><g><path d="M 3.53125 0 L 3.53125 -26.75 L 10.484375 -26.75 L 11.03125 -23.65625 C 12.226562 -25 13.488281 -25.992188 14.8125 -26.640625 C 16.132812 -27.296875 17.644531 -27.625 19.34375 -27.625 C 21.625 -27.625 23.421875 -26.925781 24.734375 -25.53125 C 26.046875 -24.144531 26.703125 -22.179688 26.703125 -19.640625 L 26.703125 0 L 18.734375 0 L 18.734375 -17.359375 C 18.734375 -18.441406 18.65625 -19.304688 18.5 -19.953125 C 18.351562 -20.609375 18.09375 -21.070312 17.71875 -21.34375 C 17.34375 -21.625 16.828125 -21.765625 16.171875 -21.765625 C 15.617188 -21.765625 15.078125 -21.640625 14.546875 -21.390625 C 14.015625 -21.148438 13.492188 -20.800781 12.984375 -20.34375 C 12.484375 -19.894531 11.984375 -19.351562 11.484375 -18.71875 L 11.484375 0 Z M 3.53125 0 "/></g></g></g><g fill="#5e6094" fill-opacity="1"><g transform="translate(238.383449, 256.053821)"><g><path d="M 28.921875 -26.75 L 20.125 -14.90625 L 29.640625 0 L 20.578125 0 L 11.78125 -14.65625 L 20.578125 -26.75 Z M 11.484375 -38.203125 L 11.484375 0 L 3.53125 0 L 3.53125 -37.375 Z M 11.484375 -38.203125 "/></g></g></g><g fill="#5e6094" fill-opacity="1"><g transform="translate(272.838188, 256.053821)"><g><path d="M 14.25 -4.84375 C 15.582031 -4.84375 16.65625 -5.050781 17.46875 -5.46875 C 18.28125 -5.882812 18.6875 -6.515625 18.6875 -7.359375 C 18.6875 -7.929688 18.523438 -8.410156 18.203125 -8.796875 C 17.890625 -9.179688 17.28125 -9.546875 16.375 -9.890625 C 15.46875 -10.242188 14.125 -10.664062 12.34375 -11.15625 C 10.71875 -11.59375 9.273438 -12.144531 8.015625 -12.8125 C 6.765625 -13.488281 5.789062 -14.351562 5.09375 -15.40625 C 4.40625 -16.46875 4.0625 -17.789062 4.0625 -19.375 C 4.0625 -20.96875 4.503906 -22.382812 5.390625 -23.625 C 6.273438 -24.863281 7.582031 -25.835938 9.3125 -26.546875 C 11.039062 -27.265625 13.160156 -27.625 15.671875 -27.625 C 18.054688 -27.625 20.132812 -27.316406 21.90625 -26.703125 C 23.675781 -26.097656 25.207031 -25.320312 26.5 -24.375 L 23.328125 -19.703125 C 22.210938 -20.390625 21.015625 -20.9375 19.734375 -21.34375 C 18.460938 -21.757812 17.179688 -21.96875 15.890625 -21.96875 C 14.597656 -21.96875 13.632812 -21.796875 13 -21.453125 C 12.375 -21.109375 12.0625 -20.585938 12.0625 -19.890625 C 12.0625 -19.441406 12.222656 -19.050781 12.546875 -18.71875 C 12.878906 -18.394531 13.5 -18.0625 14.40625 -17.71875 C 15.3125 -17.375 16.640625 -16.953125 18.390625 -16.453125 C 20.117188 -15.960938 21.625 -15.394531 22.90625 -14.75 C 24.1875 -14.113281 25.179688 -13.265625 25.890625 -12.203125 C 26.597656 -11.140625 26.953125 -9.734375 26.953125 -7.984375 C 26.953125 -6.035156 26.367188 -4.398438 25.203125 -3.078125 C 24.046875 -1.765625 22.507812 -0.78125 20.59375 -0.125 C 18.6875 0.53125 16.59375 0.859375 14.3125 0.859375 C 11.71875 0.859375 9.429688 0.488281 7.453125 -0.25 C 5.472656 -0.988281 3.785156 -1.960938 2.390625 -3.171875 L 6.390625 -7.65625 C 7.429688 -6.851562 8.609375 -6.179688 9.921875 -5.640625 C 11.242188 -5.109375 12.6875 -4.84375 14.25 -4.84375 Z M 14.25 -4.84375 "/></g></g></g><g fill="#5e6094" fill-opacity="1"><g transform="translate(307.292927, 256.053821)"><g><path d="M 28.8125 -26.75 L 19.890625 0 C 19.109375 2.363281 18.066406 4.347656 16.765625 5.953125 C 15.460938 7.554688 13.835938 8.796875 11.890625 9.671875 C 9.953125 10.546875 7.625 11.054688 4.90625 11.203125 L 4 5.59375 C 5.769531 5.375 7.195312 5.046875 8.28125 4.609375 C 9.363281 4.171875 10.234375 3.578125 10.890625 2.828125 C 11.554688 2.085938 12.132812 1.144531 12.625 0 L 9.90625 0 L 1.40625 -26.75 L 9.828125 -26.75 L 15.015625 -5.09375 L 20.65625 -26.75 Z M 28.8125 -26.75 "/></g></g></g></svg>