<svg xmlns="http://www.w3.org/2000/svg" xmlns:xlink="http://www.w3.org/1999/xlink" width="515" zoomAndPan="magnify" viewBox="0 0 386.25 95.249998" height="127" preserveAspectRatio="xMidYMid meet" version="1.0"><defs><g/><clipPath id="d9f815f35e"><path d="M 132.390625 70.671875 L 145.5 70.671875 L 145.5 75.660156 L 132.390625 75.660156 Z M 132.390625 70.671875 " clip-rule="nonzero"/></clipPath><clipPath id="33d4ea8a49"><path d="M 117.488281 0 L 160.765625 0 L 160.765625 51.464844 L 117.488281 51.464844 Z M 117.488281 0 " clip-rule="nonzero"/></clipPath><clipPath id="04a3a6ee2b"><path d="M 139.199219 0 L 160.753906 0 L 160.753906 51.464844 L 139.199219 51.464844 Z M 139.199219 0 " clip-rule="nonzero"/></clipPath><clipPath id="9d6dcc7638"><path d="M 123.734375 43.554688 L 152.304688 43.554688 L 152.304688 54.25 L 123.734375 54.25 Z M 123.734375 43.554688 " clip-rule="nonzero"/></clipPath><clipPath id="1294393559"><path d="M 139.238281 43.554688 L 154.945312 43.554688 L 154.945312 54.25 L 139.238281 54.25 Z M 139.238281 43.554688 " clip-rule="nonzero"/></clipPath></defs><path fill="#ee6b6f" d="M 148.554688 57.28125 C 148.554688 58.53125 147.539062 59.550781 146.289062 59.550781 L 132.007812 59.550781 C 130.753906 59.550781 129.738281 58.53125 129.738281 57.28125 C 129.738281 56.027344 130.753906 55.007812 132.007812 55.007812 L 146.289062 55.007812 C 147.539062 55.007812 148.554688 56.027344 148.554688 57.28125 " fill-opacity="1" fill-rule="nonzero"/><path fill="#ee6b6f" d="M 148.554688 62.808594 C 148.554688 64.0625 147.539062 65.078125 146.289062 65.078125 L 132.007812 65.078125 C 130.753906 65.078125 129.738281 64.0625 129.738281 62.808594 C 129.738281 61.558594 130.753906 60.539062 132.007812 60.539062 L 146.289062 60.539062 C 147.539062 60.539062 148.554688 61.558594 148.554688 62.808594 " fill-opacity="1" fill-rule="nonzero"/><path fill="#ee6b6f" d="M 147.265625 68.027344 C 147.265625 69.109375 146.390625 69.984375 145.3125 69.984375 L 132.984375 69.984375 C 131.902344 69.984375 131.023438 69.109375 131.023438 68.027344 C 131.023438 66.945312 131.902344 66.070312 132.984375 66.070312 L 145.3125 66.070312 C 146.390625 66.070312 147.265625 66.945312 147.265625 68.027344 " fill-opacity="1" fill-rule="nonzero"/><g clip-path="url(#d9f815f35e)"><path fill="#5e6094" d="M 132.917969 70.980469 C 132.917969 73.625 135.707031 75.769531 139.148438 75.769531 C 142.589844 75.769531 145.378906 73.625 145.378906 70.980469 L 132.917969 70.980469 " fill-opacity="1" fill-rule="nonzero"/></g><g clip-path="url(#33d4ea8a49)"><path fill="#fbbe48" d="M 160.765625 25.730469 C 160.765625 26.574219 160.730469 27.414062 160.664062 28.253906 C 160.59375 29.089844 160.488281 29.921875 160.351562 30.75 C 160.210938 31.574219 160.039062 32.390625 159.835938 33.199219 C 159.628906 34.003906 159.390625 34.796875 159.121094 35.574219 C 158.847656 36.351562 158.546875 37.113281 158.210938 37.855469 C 157.878906 38.597656 157.511719 39.320312 157.121094 40.019531 C 156.726562 40.71875 156.304688 41.394531 155.855469 42.046875 C 155.40625 42.699219 154.929688 43.320312 154.429688 43.917969 C 153.925781 44.511719 153.402344 45.078125 152.855469 45.613281 C 152.308594 46.148438 151.738281 46.648438 151.148438 47.117188 C 150.558594 47.582031 149.953125 48.015625 149.328125 48.414062 C 148.703125 48.8125 148.0625 49.171875 147.410156 49.492188 C 146.753906 49.816406 146.085938 50.097656 145.410156 50.34375 C 144.730469 50.585938 144.042969 50.792969 143.347656 50.957031 C 142.65625 51.121094 141.953125 51.242188 141.25 51.328125 C 140.542969 51.410156 139.835938 51.449219 139.128906 51.449219 C 138.417969 51.449219 137.710938 51.410156 137.007812 51.328125 C 136.300781 51.242188 135.601562 51.121094 134.90625 50.957031 C 134.210938 50.792969 133.523438 50.585938 132.847656 50.34375 C 132.167969 50.097656 131.503906 49.816406 130.847656 49.492188 C 130.191406 49.171875 129.554688 48.8125 128.929688 48.414062 C 128.304688 48.015625 127.695312 47.582031 127.105469 47.117188 C 126.515625 46.648438 125.949219 46.148438 125.402344 45.613281 C 124.851562 45.078125 124.328125 44.511719 123.828125 43.917969 C 123.328125 43.320312 122.851562 42.699219 122.402344 42.046875 C 121.953125 41.394531 121.53125 40.71875 121.136719 40.019531 C 120.742188 39.320312 120.378906 38.597656 120.046875 37.855469 C 119.710938 37.113281 119.410156 36.351562 119.136719 35.574219 C 118.867188 34.796875 118.628906 34.003906 118.421875 33.199219 C 118.214844 32.390625 118.042969 31.574219 117.90625 30.75 C 117.765625 29.921875 117.664062 29.089844 117.59375 28.253906 C 117.523438 27.414062 117.488281 26.574219 117.488281 25.730469 C 117.488281 24.890625 117.523438 24.050781 117.59375 23.210938 C 117.664062 22.371094 117.765625 21.539062 117.90625 20.714844 C 118.042969 19.886719 118.214844 19.074219 118.421875 18.265625 C 118.628906 17.460938 118.867188 16.667969 119.136719 15.890625 C 119.410156 15.113281 119.710938 14.351562 120.046875 13.609375 C 120.378906 12.867188 120.742188 12.144531 121.136719 11.445312 C 121.53125 10.742188 121.953125 10.066406 122.402344 9.417969 C 122.851562 8.765625 123.328125 8.140625 123.828125 7.546875 C 124.328125 6.949219 124.851562 6.386719 125.402344 5.851562 C 125.949219 5.316406 126.515625 4.816406 127.105469 4.347656 C 127.695312 3.878906 128.304688 3.449219 128.929688 3.050781 C 129.554688 2.652344 130.191406 2.292969 130.847656 1.972656 C 131.503906 1.648438 132.167969 1.367188 132.847656 1.121094 C 133.523438 0.875 134.210938 0.671875 134.90625 0.507812 C 135.601562 0.34375 136.300781 0.21875 137.007812 0.136719 C 137.710938 0.0546875 138.417969 0.0117188 139.128906 0.0117188 C 139.835938 0.0117188 140.542969 0.0546875 141.25 0.136719 C 141.953125 0.21875 142.65625 0.34375 143.347656 0.507812 C 144.042969 0.671875 144.730469 0.875 145.410156 1.121094 C 146.085938 1.367188 146.753906 1.648438 147.410156 1.972656 C 148.0625 2.292969 148.703125 2.652344 149.328125 3.050781 C 149.953125 3.449219 150.558594 3.878906 151.148438 4.347656 C 151.738281 4.816406 152.308594 5.316406 152.855469 5.851562 C 153.402344 6.386719 153.925781 6.949219 154.429688 7.546875 C 154.929688 8.140625 155.40625 8.765625 155.855469 9.417969 C 156.304688 10.066406 156.726562 10.742188 157.121094 11.445312 C 157.511719 12.144531 157.878906 12.867188 158.210938 13.609375 C 158.546875 14.351562 158.847656 15.113281 159.121094 15.890625 C 159.390625 16.667969 159.628906 17.460938 159.835938 18.265625 C 160.039062 19.074219 160.210938 19.886719 160.351562 20.714844 C 160.488281 21.539062 160.59375 22.371094 160.664062 23.210938 C 160.730469 24.050781 160.765625 24.890625 160.765625 25.730469 Z M 160.765625 25.730469 " fill-opacity="1" fill-rule="nonzero"/></g><g clip-path="url(#04a3a6ee2b)"><path fill="#ffde59" d="M 160.765625 25.730469 C 160.765625 26.574219 160.730469 27.414062 160.664062 28.253906 C 160.59375 29.089844 160.488281 29.921875 160.351562 30.75 C 160.210938 31.574219 160.039062 32.390625 159.835938 33.199219 C 159.628906 34.003906 159.390625 34.796875 159.121094 35.574219 C 158.847656 36.351562 158.546875 37.113281 158.210938 37.855469 C 157.878906 38.597656 157.511719 39.320312 157.121094 40.019531 C 156.726562 40.71875 156.304688 41.394531 155.855469 42.046875 C 155.40625 42.699219 154.929688 43.320312 154.429688 43.917969 C 153.925781 44.511719 153.402344 45.078125 152.855469 45.613281 C 152.308594 46.148438 151.738281 46.648438 151.148438 47.117188 C 150.558594 47.582031 149.953125 48.015625 149.328125 48.414062 C 148.703125 48.8125 148.0625 49.171875 147.410156 49.492188 C 146.753906 49.816406 146.085938 50.097656 145.410156 50.34375 C 144.730469 50.585938 144.042969 50.792969 143.351562 50.957031 C 142.65625 51.121094 141.953125 51.242188 141.25 51.328125 C 140.542969 51.410156 139.835938 51.449219 139.128906 51.449219 C 138.417969 51.449219 137.710938 51.410156 137.007812 51.328125 C 136.300781 51.242188 135.601562 51.121094 134.90625 50.957031 C 134.210938 50.792969 133.523438 50.585938 132.847656 50.34375 C 132.167969 50.097656 131.503906 49.816406 130.847656 49.492188 C 130.191406 49.171875 129.554688 48.8125 128.929688 48.414062 C 128.304688 48.015625 127.695312 47.582031 127.105469 47.117188 C 126.515625 46.648438 125.949219 46.148438 125.402344 45.613281 C 124.851562 45.078125 124.328125 44.511719 123.828125 43.917969 C 123.328125 43.320312 122.851562 42.699219 122.402344 42.046875 C 121.953125 41.394531 121.53125 40.71875 121.136719 40.019531 C 120.742188 39.320312 120.378906 38.597656 120.046875 37.855469 C 119.710938 37.113281 119.410156 36.351562 119.136719 35.574219 C 118.867188 34.796875 118.628906 34.003906 118.421875 33.199219 C 118.214844 32.390625 118.042969 31.574219 117.90625 30.75 C 117.765625 29.921875 117.664062 29.089844 117.59375 28.253906 C 117.523438 27.414062 117.488281 26.574219 117.488281 25.730469 C 117.488281 24.890625 117.523438 24.050781 117.59375 23.210938 C 117.664062 22.371094 117.765625 21.539062 117.90625 20.714844 C 118.042969 19.886719 118.214844 19.074219 118.421875 18.265625 C 118.628906 17.460938 118.867188 16.667969 119.136719 15.890625 C 119.410156 15.113281 119.710938 14.351562 120.046875 13.609375 C 120.378906 12.867188 120.742188 12.144531 121.136719 11.445312 C 121.53125 10.742188 121.953125 10.066406 122.402344 9.417969 C 122.851562 8.765625 123.328125 8.140625 123.828125 7.546875 C 124.328125 6.949219 124.851562 6.386719 125.402344 5.851562 C 125.949219 5.316406 126.515625 4.816406 127.105469 4.347656 C 127.695312 3.878906 128.304688 3.449219 128.929688 3.050781 C 129.554688 2.652344 130.191406 2.292969 130.847656 1.972656 C 131.503906 1.648438 132.167969 1.367188 132.847656 1.121094 C 133.523438 0.875 134.210938 0.671875 134.90625 0.507812 C 135.601562 0.34375 136.300781 0.21875 137.007812 0.136719 C 137.710938 0.0546875 138.417969 0.0117188 139.128906 0.0117188 C 139.835938 0.0117188 140.542969 0.0546875 141.25 0.136719 C 141.953125 0.21875 142.65625 0.34375 143.351562 0.507812 C 144.042969 0.671875 144.730469 0.875 145.410156 1.121094 C 146.085938 1.367188 146.753906 1.648438 147.410156 1.972656 C 148.0625 2.292969 148.703125 2.652344 149.328125 3.050781 C 149.953125 3.449219 150.558594 3.878906 151.148438 4.347656 C 151.738281 4.816406 152.308594 5.316406 152.855469 5.851562 C 153.402344 6.386719 153.925781 6.949219 154.429688 7.546875 C 154.929688 8.140625 155.40625 8.765625 155.855469 9.417969 C 156.304688 10.066406 156.726562 10.742188 157.121094 11.445312 C 157.511719 12.144531 157.878906 12.867188 158.210938 13.609375 C 158.546875 14.351562 158.847656 15.113281 159.121094 15.890625 C 159.390625 16.667969 159.628906 17.460938 159.835938 18.265625 C 160.039062 19.074219 160.210938 19.886719 160.351562 20.714844 C 160.488281 21.539062 160.59375 22.371094 160.664062 23.210938 C 160.730469 24.050781 160.765625 24.890625 160.765625 25.730469 Z M 160.765625 25.730469 " fill-opacity="1" fill-rule="nonzero"/></g><g clip-path="url(#9d6dcc7638)"><path fill="#fbbe48" d="M 145.179688 54.25 L 148.726562 48.902344 L 152.277344 43.554688 C 142.773438 43.5625 133.265625 43.566406 123.761719 43.570312 C 126.109375 47.128906 128.460938 50.683594 130.8125 54.238281 C 135.601562 54.242188 140.390625 54.246094 145.179688 54.25 " fill-opacity="1" fill-rule="nonzero"/></g><g clip-path="url(#1294393559)"><path fill="#ffde59" d="M 147.816406 54.25 L 154.917969 43.554688 C 145.410156 43.5625 135.902344 43.566406 126.398438 43.570312 C 128.75 47.128906 131.101562 50.683594 133.449219 54.238281 C 138.238281 54.242188 143.027344 54.246094 147.816406 54.25 " fill-opacity="1" fill-rule="nonzero"/></g><g fill="#5e6094" fill-opacity="1"><g transform="translate(7.542102, 72.134926)"><g><path d="M 30 -44.6875 L 30 0 L 17.078125 0 L 17.078125 -44.6875 L 1.765625 -44.6875 L 1.765625 -54.5625 L 45.9375 -54.5625 L 44.609375 -44.6875 Z M 30 -44.6875 "/></g></g></g><g fill="#5e6094" fill-opacity="1"><g transform="translate(61.399446, 72.134926)"><g><path d="M 17.953125 -59.640625 L 17.953125 -37.671875 C 19.710938 -39.535156 21.617188 -40.921875 23.671875 -41.828125 C 25.734375 -42.734375 27.921875 -43.1875 30.234375 -43.1875 C 33.960938 -43.1875 36.8125 -42.097656 38.78125 -39.921875 C 40.75 -37.742188 41.734375 -34.671875 41.734375 -30.703125 L 41.734375 0 L 29.296875 0 L 29.296875 -27.234375 C 29.296875 -29.753906 29.007812 -31.515625 28.4375 -32.515625 C 27.875 -33.515625 26.820312 -34.015625 25.28125 -34.015625 C 24.40625 -34.015625 23.554688 -33.8125 22.734375 -33.40625 C 21.910156 -33 21.101562 -32.414062 20.3125 -31.65625 C 19.519531 -30.894531 18.734375 -29.988281 17.953125 -28.9375 L 17.953125 0 L 5.515625 0 L 5.515625 -58.421875 Z M 17.953125 -59.640625 "/></g></g></g><g fill="#5e6094" fill-opacity="1"><g transform="translate(115.256789, 72.134926)"><g/></g></g><g fill="#5e6094" fill-opacity="1"><g transform="translate(169.114133, 72.134926)"><g><path d="M 5.515625 0 L 5.515625 -41.8125 L 16.375 -41.8125 L 17.25 -36.96875 C 19.101562 -39.0625 21.066406 -40.617188 23.140625 -41.640625 C 25.222656 -42.671875 27.585938 -43.1875 30.234375 -43.1875 C 33.804688 -43.1875 36.613281 -42.097656 38.65625 -39.921875 C 40.707031 -37.742188 41.734375 -34.671875 41.734375 -30.703125 L 41.734375 0 L 29.296875 0 L 29.296875 -27.125 C 29.296875 -28.832031 29.175781 -30.191406 28.9375 -31.203125 C 28.695312 -32.210938 28.28125 -32.929688 27.6875 -33.359375 C 27.101562 -33.796875 26.300781 -34.015625 25.28125 -34.015625 C 24.40625 -34.015625 23.554688 -33.820312 22.734375 -33.4375 C 21.910156 -33.0625 21.101562 -32.519531 20.3125 -31.8125 C 19.519531 -31.101562 18.734375 -30.25 17.953125 -29.25 L 17.953125 0 Z M 5.515625 0 "/></g></g></g><g fill="#5e6094" fill-opacity="1"><g transform="translate(222.971476, 72.134926)"><g><path d="M 45.1875 -41.8125 L 31.453125 -23.3125 L 46.328125 0 L 32.15625 0 L 18.421875 -22.90625 L 32.15625 -41.8125 Z M 17.953125 -59.71875 L 17.953125 0 L 5.515625 0 L 5.515625 -58.421875 Z M 17.953125 -59.71875 "/></g></g></g><g fill="#5e6094" fill-opacity="1"><g transform="translate(276.82882, 72.134926)"><g><path d="M 22.28125 -7.5625 C 24.351562 -7.5625 26.023438 -7.890625 27.296875 -8.546875 C 28.566406 -9.203125 29.203125 -10.1875 29.203125 -11.5 C 29.203125 -12.382812 28.953125 -13.128906 28.453125 -13.734375 C 27.960938 -14.335938 27.007812 -14.914062 25.59375 -15.46875 C 24.175781 -16.019531 22.078125 -16.675781 19.296875 -17.4375 C 16.742188 -18.125 14.488281 -18.988281 12.53125 -20.03125 C 10.582031 -21.082031 9.0625 -22.4375 7.96875 -24.09375 C 6.882812 -25.75 6.34375 -27.804688 6.34375 -30.265625 C 6.34375 -32.765625 7.035156 -34.984375 8.421875 -36.921875 C 9.816406 -38.867188 11.863281 -40.398438 14.5625 -41.515625 C 17.269531 -42.628906 20.578125 -43.1875 24.484375 -43.1875 C 28.210938 -43.1875 31.460938 -42.707031 34.234375 -41.75 C 37.003906 -40.789062 39.398438 -39.578125 41.421875 -38.109375 L 36.453125 -30.78125 C 34.722656 -31.863281 32.859375 -32.722656 30.859375 -33.359375 C 28.867188 -34.003906 26.863281 -34.328125 24.84375 -34.328125 C 22.820312 -34.328125 21.316406 -34.054688 20.328125 -33.515625 C 19.347656 -32.984375 18.859375 -32.175781 18.859375 -31.09375 C 18.859375 -30.382812 19.113281 -29.773438 19.625 -29.265625 C 20.132812 -28.753906 21.097656 -28.226562 22.515625 -27.6875 C 23.929688 -27.15625 26.003906 -26.492188 28.734375 -25.703125 C 31.441406 -24.941406 33.796875 -24.0625 35.796875 -23.0625 C 37.804688 -22.070312 39.363281 -20.742188 40.46875 -19.078125 C 41.570312 -17.410156 42.125 -15.210938 42.125 -12.484375 C 42.125 -9.429688 41.21875 -6.875 39.40625 -4.8125 C 37.59375 -2.757812 35.191406 -1.21875 32.203125 -0.1875 C 29.210938 0.832031 25.929688 1.34375 22.359375 1.34375 C 18.316406 1.34375 14.742188 0.765625 11.640625 -0.390625 C 8.546875 -1.546875 5.910156 -3.066406 3.734375 -4.953125 L 10 -11.96875 C 11.625 -10.707031 13.46875 -9.65625 15.53125 -8.8125 C 17.59375 -7.976562 19.84375 -7.5625 22.28125 -7.5625 Z M 22.28125 -7.5625 "/></g></g></g><g fill="#5e6094" fill-opacity="1"><g transform="translate(330.686163, 72.134926)"><g><path d="M 45.03125 -41.8125 L 31.09375 0 C 29.863281 3.695312 28.226562 6.796875 26.1875 9.296875 C 24.15625 11.804688 21.625 13.742188 18.59375 15.109375 C 15.5625 16.484375 11.921875 17.285156 7.671875 17.515625 L 6.265625 8.734375 C 9.015625 8.398438 11.234375 7.890625 12.921875 7.203125 C 14.617188 6.523438 15.984375 5.597656 17.015625 4.421875 C 18.054688 3.253906 18.957031 1.78125 19.71875 0 L 15.46875 0 L 2.203125 -41.8125 L 15.359375 -41.8125 L 23.46875 -7.953125 L 32.28125 -41.8125 Z M 45.03125 -41.8125 "/></g></g></g></svg>